# xmcd
#
# Track frame offsets:
# 150
# 14011
# 27290
# 41394
# 61630
# 72959
# 86225
# 102286
# 117087
# 130815
# 158011
# 171875
# 184370
#
# Disc length: 2685 seconds
#
#
# Revision: 0
# Processed by: cddbd v1.5.2PL0 Copyright (c) Steve Scherf et al.
# Submitted via: FreeRIP 2.945 
#
DISCID=a80a7b0d
DTITLE=ZECA E BANDA - AO VIVO
DYEAR=2006
DGENRE=Musical
TTITLE0=ROBERTO E BANDA - MULHER DOIDEIRA
TTITLE1=ROBERTO E BANDA - DARUN DAUNDÊ
TTITLE2=ROBERTO E BANDA - BILILIBOM
TTITLE3=ROBERTO E BANDA - NÊGA BOA DO CARAÍ
TTITLE4=ROBERTO E BANDA - FORRÓ DO SIMBOLO
TTITLE5=ROBERTO E BANDA - GOGÓ DA EMA
TTITLE6=ROBERTO E BANDA - FORRÓ DO JACARÉ
TTITLE7=ROBERTO E BANDA - SÓ PODE SER
TTITLE8=ROBERTO E BANDA - DEIXA
TTITLE9=ROBERTO E BANDA - GARRAFINHA-RAPARIGUEIRO
TTITLE10=ROBERTO E BANDA - UM HOMEM AUSENTE
TTITLE11=ROBERTO E BANDA - FAZER VALER
TTITLE12=ROBERTO E BANDA - FOGO NO CABARÉ
EXTD=FORRO AO VIVO
EXTT0=
EXTT1=
EXTT2=
EXTT3=
EXTT4=
EXTT5=
EXTT6=
EXTT7=
EXTT8=
EXTT9=
EXTT10=
EXTT11=
EXTT12=
PLAYORDER=
